<svg width="392" height="393" viewBox="0 0 392 393" fill="none" xmlns="http://www.w3.org/2000/svg">
<path d="M324.951 216.877C315.152 213.175 305.622 209.56 296.339 206.039C294.784 207.405 295.169 208.675 295.165 209.81C295.135 218.163 295.247 226.518 295.104 234.868C295.06 237.394 296.018 238.664 298.298 239.771C317.149 248.928 335.75 258.529 352.978 270.434C357.369 273.468 361.684 276.616 365.905 279.87C369.852 282.913 371.76 286.779 371.732 291.947C371.567 322.375 371.63 352.805 371.686 383.233C371.693 387.001 370.598 390.06 367.11 391.934C363.406 393.924 360.092 392.938 356.919 390.548C328.308 369.003 296.176 353.543 263.284 339.48C233.246 326.638 202.501 315.544 171.471 305.198C166.958 303.693 162.422 302.242 157.97 300.579C151.151 298.033 144.219 296.9 136.841 296.988C114.683 297.252 92.518 297.086 70.3557 297.052C60.7354 297.037 56.7538 293.138 56.7068 283.769C56.6787 278.16 56.5401 272.545 56.7891 266.946C56.9177 264.055 55.6961 262.631 53.1719 261.531C40.0695 255.819 27.523 249.126 15.9033 240.874C13.1378 238.91 10.4407 236.823 7.91547 234.576C2.68422 229.92 0.0928313 224.17 0.112607 217.132C0.202103 185.272 0.370007 153.408 0.00289761 121.552C-0.116005 111.233 3.41886 103.278 11.6347 97.0237C17.4195 92.6202 23.0142 87.9483 29.5516 84.6069C34.6906 81.9801 40.2157 83.0676 42.6512 86.9406C45.2925 91.1409 43.8621 96.0761 38.9392 99.6567C34.1335 103.152 29.2231 106.517 24.5185 110.137C17.3683 115.638 16.9808 120.834 23.5499 126.8C32.5993 135.017 43.4861 140.548 54.4038 145.973C54.8 146.17 55.3349 146.101 55.7289 146.148C57.1374 145.061 56.6591 143.645 56.6664 142.404C56.7124 134.648 56.68 126.891 56.6984 119.135C56.7171 111.215 60.5799 107.32 68.7119 106.864C70.472 106.766 72.3996 107.436 74.5065 105.6C56.8537 89.1446 49.4725 69.3971 55.1751 45.7883C58.5389 31.8626 66.3815 20.6306 77.9084 12.0875C91.4984 2.01541 107.05 -1.73141 123.951 1.0686C140.682 3.8404 153.624 12.813 164.238 26.1663C178.791 6.85761 198.15 -1.68688 222.064 0.274397C236.675 1.47267 249.398 7.22633 259.934 17.3348C272.841 29.7183 279.104 44.6724 278.495 62.3521C277.893 79.82 270.079 94.0589 257.145 106.863C261.993 106.863 266.1 106.857 270.207 106.865C274.37 106.872 278.535 106.812 282.695 106.926C290.737 107.147 295.074 111.481 295.149 119.317C295.204 125.044 295.152 130.773 295.201 136.5C295.21 137.648 294.849 138.888 296.056 140.346C300.599 138.842 305.336 137.365 310.007 135.712C333.115 127.533 356.196 119.278 379.31 111.115C386.474 108.586 391.987 112.958 391.992 121.178C392.015 156.366 391.983 191.555 391.967 226.743C391.967 227.578 391.967 228.416 391.891 229.247C391.023 238.718 385.727 241.486 376.767 237.764C359.66 230.658 342.41 223.879 324.951 216.877ZM275.644 132.559C275.643 131.843 275.546 131.112 275.657 130.413C276.244 126.736 274.615 125.489 270.928 125.831C268.016 126.1 265.057 125.898 262.119 125.898C204.705 125.892 147.291 125.884 89.8773 125.88C85.0842 125.88 85.0836 125.896 85.0813 130.643C85.0772 138.756 85.3552 146.881 84.9516 154.975C84.7498 159.022 86.5103 160.603 89.9808 161.926C117.784 172.524 146.12 181.652 174.359 191.043C205.27 201.322 236.139 211.696 265.972 224.756C268.934 226.053 271.994 227.138 275.644 228.572C275.644 196.398 275.644 164.828 275.644 132.559ZM199.286 293.729C231.266 304.875 262.912 316.825 293.575 331.212C294.631 329.316 294.249 327.625 294.251 326.002C294.27 305.014 294.184 284.026 294.335 263.039C294.356 260.215 293.514 258.846 290.958 257.593C262.18 243.479 232.349 231.821 202.086 221.161C198.601 219.934 195.286 217.954 191.372 218.17C190.627 219.821 190.924 221.391 190.922 222.915C190.902 242.831 190.91 262.746 190.914 282.661C190.915 290.772 190.919 290.772 199.286 293.729ZM154.098 278.293C161.097 280.693 168.095 283.094 175.289 285.561C175.493 284.678 175.683 284.239 175.684 283.8C175.71 260.893 175.709 237.985 175.75 215.078C175.754 213.266 175.068 212.296 173.254 211.686C160.309 207.334 147.403 202.87 134.461 198.508C133.4 198.151 132.185 197.544 130.953 198.344C130.866 198.7 130.71 199.04 130.709 199.38C130.701 222.168 130.735 244.957 130.663 267.745C130.656 270.071 131.917 270.817 133.799 271.441C140.397 273.626 146.973 275.878 154.098 278.293ZM115.741 200.543C115.723 199.232 115.526 197.895 115.721 196.615C116.256 193.118 114.526 191.652 111.288 190.499C99.3582 186.25 87.5463 181.687 75.6807 177.267C74.5978 176.864 73.5195 176.079 71.9622 176.95C71.9622 183.707 71.7065 190.599 72.0137 197.467C72.7275 213.425 71.9268 229.377 72.0217 245.33C72.0352 247.596 72.5908 248.733 74.7486 249.65C87.1925 254.938 99.8959 259.563 112.669 264.017C113.637 264.355 114.664 264.995 115.746 264.207C115.746 243.191 115.746 222.222 115.741 200.543ZM329.972 278.88C323.469 275.27 317.429 270.83 310.323 267.968C310.118 268.761 309.954 269.102 309.954 269.443C309.939 291.863 309.97 314.284 309.883 336.703C309.874 338.984 311.201 339.762 312.858 340.663C320.974 345.075 329.096 349.481 337.141 354.014C342.054 356.783 346.832 359.778 352.267 363.028C352.267 361.102 352.257 359.929 352.269 358.756C352.475 338.01 351.854 317.26 352.585 296.517C352.658 294.446 351.82 293.012 350.028 291.745C343.684 287.259 337.081 283.171 329.972 278.88ZM34.8913 229.87C41.7431 233.875 48.5881 237.894 56.3844 240.78C56.5552 239.572 56.7077 238.995 56.7082 238.418C56.7282 216.237 56.705 194.056 56.7873 171.875C56.7956 169.654 55.6501 168.764 53.8757 167.902C43.1484 162.687 32.4029 157.497 22.7515 150.449C21.8269 149.774 20.8422 148.908 19.5437 149.316C18.864 149.964 18.9962 150.712 18.9974 151.407C19.0335 172.99 19.103 194.574 19.0821 216.157C19.0804 217.948 19.8857 219.039 21.1184 220.104C25.2542 223.677 29.8447 226.636 34.8913 229.87ZM327.427 180.477C327.448 184.766 327.599 189.06 327.442 193.344C327.352 195.806 328.431 196.899 330.675 197.759C340.34 201.461 349.917 205.38 359.575 209.1C361.528 209.851 363.355 211.287 365.776 210.926C365.776 186.465 365.776 162.157 365.776 137.599C364.628 137.858 363.896 137.93 363.238 138.186C352.353 142.417 341.368 146.38 330.168 149.746C327.981 150.403 327.387 151.621 327.402 153.665C327.465 162.364 327.429 171.062 327.427 180.477ZM94.8891 44.1847C86.337 54.844 88.1351 68.8164 99.1798 77.5269C109.223 85.4477 123.897 83.9696 132.036 74.2172C140.731 63.7975 139.111 49.0639 128.314 40.3612C118.267 32.2635 104.085 33.7373 94.8891 44.1847ZM228.886 77.4067C241.778 66.7961 241.285 48.8883 227.495 39.3657C214.218 30.1976 196.406 36.5517 191.234 50.6407C187.659 60.3766 191.646 71.3628 199.948 77.4662C208.981 84.1071 218.351 84.1905 228.886 77.4067ZM243.748 94.0317C247.636 91.0642 251.006 87.5611 253.611 83.5254C262.234 70.1675 263.615 56.1935 256.608 41.747C255.595 39.6599 254.413 37.0116 251.183 38.4107C248.183 39.7101 248.756 42.1935 249.703 44.5443C251.091 47.9914 252.194 51.5029 252.593 55.2009C254.533 73.1854 241.511 88.4486 227.902 93.6958C224.456 95.0242 220.853 95.5848 217.33 96.5253C215.118 97.1156 213.955 98.4275 214.353 100.715C214.738 102.932 216.216 103.969 218.479 103.972C219.21 103.973 219.955 103.961 220.67 103.831C228.953 102.327 236.67 99.5293 243.748 94.0317ZM296.141 161.741C295.838 162.23 295.274 162.717 295.27 163.209C295.213 169.754 295.231 176.299 295.24 182.844C295.241 183.722 295.467 184.512 296.427 184.855C300.621 186.354 304.609 188.429 309.411 189.571C309.411 179.212 309.433 169.251 309.393 159.291C309.385 157.321 308.07 157.297 306.585 157.837C303.269 159.042 299.959 160.26 296.141 161.741ZM131.066 106.123C143.685 104.056 152.608 96.6444 159.873 86.9761C161.018 85.4521 160.692 83.49 158.892 82.2333C157.132 81.0048 155.618 81.7401 154.36 83.0705C152.791 84.7296 151.405 86.5572 149.796 88.1763C144.685 93.3195 138.426 96.6897 131.649 99.2975C127.498 100.895 127.153 103.339 131.066 106.123Z" fill="#D38824"/>
<path d="M205.847 360.955C201.353 362.681 198.026 361.878 195.997 358.779C194.214 356.056 194.464 350.954 196.498 348.54C198.654 345.983 202.822 345.11 205.775 346.598C211.281 349.373 211.435 356.519 205.847 360.955Z" fill="#D38824"/>
<path d="M142.387 332.864C146.626 335.531 147.927 339.146 146.086 342.51C144.329 345.719 139.719 347.429 135.746 346.345C132.116 345.355 129.685 341.75 130.204 338.126C130.88 333.407 135.871 331.149 142.387 332.864Z" fill="#D38824"/>
<path d="M293.253 53.8901C291.043 48.1511 292.371 44.0621 296.794 42.2596C300.975 40.5563 305.315 41.9401 307.253 45.5945C309.137 49.1456 308.035 53.6967 304.731 56.0114C301.073 58.5744 296.656 57.8465 293.253 53.8901Z" fill="#D38824"/>
<path d="M333.979 94.7068C330.908 96.923 327.863 97.4125 324.94 95.3035C322.033 93.2058 321.299 89.9899 321.979 86.5049C322.61 83.2741 324.786 81.4381 327.768 80.8586C331 80.2305 333.863 81.2037 335.7 84.1897C337.762 87.5417 337.197 90.7648 333.979 94.7068Z" fill="#D38824"/>
<path d="M178.144 335.647C183.025 338.169 184.635 341.864 183.019 346.225C181.518 350.273 177.829 352.282 173.972 351.151C170.032 349.997 167.997 346.575 168.544 342.023C169.035 337.93 171.653 335.549 175.754 335.489C176.454 335.479 177.154 335.553 178.144 335.647Z" fill="#D38824"/>
<path d="M307.353 73.1148C305.077 66.3985 307.908 62.218 314.337 62.3062C317.824 62.3541 320.146 63.8412 321.282 66.9762C322.412 70.0963 321.486 72.8485 318.28 75.1388C315.694 76.9868 312.881 77.1998 310.013 75.6492C308.974 75.0877 308.1 74.3437 307.353 73.1148Z" fill="#D38824"/>
<path d="M251.87 148.532C256.202 154.083 256.615 159.875 253.21 165.002C249.986 169.856 243.557 172.54 237.586 171.525C231.913 170.56 227.436 166.055 226.174 160.041C225.046 154.662 228.081 148.292 233.029 145.655C239.132 142.402 246.078 143.397 251.87 148.532Z" fill="#D38824"/>
<path d="M114.467 47.128C122.789 49.222 126.78 54.9433 124.876 61.6162C123.437 66.6601 117.631 70.6542 112.301 70.2667C106.663 69.8568 102.071 65.789 101.491 60.6903C100.793 54.5621 103.866 49.713 109.723 47.8947C111.14 47.4548 112.67 47.3593 114.467 47.128Z" fill="#D38824"/>
<path d="M202.148 62.3663C201.309 53.4771 203.717 49.4256 210.636 47.6064C215.636 46.2918 220.403 47.7233 223.442 51.4519C226.35 55.0187 226.764 60.4176 224.442 64.4873C222.269 68.2975 217.064 70.7011 212.28 70.2351C207.257 69.7459 203.955 67.2207 202.148 62.3663Z" fill="#D38824"/>
</svg>
